<svg xmlns="http://www.w3.org/2000/svg" viewBox="280 20 660 660" width="150" height="150"><g stroke-width="2" fill="none" stroke-linecap="butt"><path d="M 605.92 237.54L 596.04 237.54A 1.54 1.54 89.81 0 1 594.5 236.01Q 594.34 212.85 594.53 203.98Q 594.91 186.47 594.56 172.02Q 594.23 158.52 594.65 124.67Q 594.83 109.9 593.42 103.88Q 589.81 88.54 578.44 78.1C 572.16 72.34 563 68.41 554.9 67.11C 535.7 64.04 516.24 69.08 499.12 78.39Q 480.81 88.35 468.97 105.01C 466.46 108.54 464.21 113.63 462.03 117.48A 1.31 1.3 -76.2 0 1 460.95 118.14C 453.25 118.49 446.18 118.7 439.15 120.75C 423.82 125.22 409.84 133.98 400.7 146.95C 394.65 155.53 389.86 167.19 388.91 178.11C 388.08 187.79 388.77 197.01 390.01 206.8A 1.08 1.07 -14.63 0 1 389.34 207.94Q 385.21 209.59 380.08 212.11C 366.77 218.62 356.96 229.47 351.26 243.35Q 342.75 264.11 348.13 287.89Q 348.81 290.91 351.45 299.58Q 352.21 302.07 349.96 304.2Q 332.58 320.59 321.57 341.67Q 318.95 346.67 317.23 351.8Q 314.3 360.52 313.82 362.32Q 311.24 371.97 311.15 386.21C 311.08 398.37 314.25 410.94 319.63 421.41C 323.24 428.44 328.06 433.07 334.49 440.12Q 335.63 441.37 336.62 442.01A 1.87 1.85 23.07 0 1 337.42 443.97C 335.73 451.72 334.29 457.27 333.81 463.61Q 332.38 482.74 342.38 500C 351.96 516.54 370.96 525.09 388.48 528.74A 1.1 1.1 -81.5 0 1 389.35 529.92C 388.7 536.92 387.86 542.32 388.13 548.7Q 389.36 576.89 411.96 593.23C 414.35 594.96 417.07 596.32 420.04 598.12Q 422.64 599.71 426.39 601.28Q 437.24 605.82 450.88 609.36Q 454.06 610.18 455.58 612.45C 462.6 622.93 471.67 631.89 482.84 638.2C 493.45 644.2 505.96 648.73 517.01 650.72Q 530.17 653.1 545.77 651.35Q 551.64 650.7 556.62 648.85C 559.58 647.76 564.45 646.22 567.99 644.04C 578.81 637.39 588.77 626.38 591.84 613.82Q 593.62 606.55 593.94 600.49C 594.85 583.06 594.03 560.84 594.24 543.13Q 594.34 534.76 594.2 518.85A 2.39 2.38 89.64 0 1 596.58 516.43L 601.94 516.43A 2.17 2.17 89.87 0 1 604.11 518.59Q 604.18 527.86 604.12 540.43C 604.09 546.97 604.57 552.5 605.03 559.7A 4.6 4.23 37.43 0 0 605.2 560.67Q 606.25 564.21 606.4 565.78Q 607.24 574.13 607.09 589.53Q 607.02 597.15 607.53 601.94Q 608.46 610.66 609.6 614.2Q 614.21 628.59 625.85 638.59Q 634.87 646.33 647.56 649.73Q 659.15 652.83 672 651.97Q 682.25 651.29 686.99 650.16C 700.6 646.91 713.87 642.07 724.58 634.48Q 736.88 625.77 745.55 613.08C 746.49 611.7 747.9 610.15 749.31 609.75Q 763.11 605.85 774.75 601.28C 779.09 599.58 783.78 596.65 786.92 594.68Q 806.24 582.56 811.58 560.31Q 813.64 551.74 813.52 546.48Q 813.37 539.22 812.27 529.97A 1.03 1.03 81.46 0 1 813.11 528.83C 827.3 526.22 838.83 521.2 850.01 511.51Q 856.13 506.21 859.58 499.33C 863.32 491.9 866.63 483.8 867.1 475.35C 867.56 467.27 867.63 458.52 865.71 450.75Q 864.19 444.61 864.17 444.57A 1.4 1.39 52.14 0 1 864.33 443.26Q 865.66 441.39 866.03 441.02Q 877.88 429.3 882.69 419.01Q 896.39 389.69 886.33 357.89Q 882.8 346.72 881.3 344.04C 871.96 327.37 864 315.29 851.43 304.3Q 849.17 302.33 850.18 299.02Q 851.73 293.97 853.37 287.11C 857.76 268.83 854.41 249.53 845.15 233.55C 840.1 224.82 833.35 218.98 825.1 213.84C 820.74 211.12 817.89 210.14 812.03 207.68A 1.64 1.63 16.02 0 1 811.05 205.92C 813.77 188.99 814 173.84 807.01 158.25C 802.11 147.33 796.84 139.61 787.18 132.63Q 775.34 124.07 761.42 120.34C 754.72 118.55 747.34 118.51 740.42 118A 1.58 1.57 -11.32 0 1 739.15 117.16C 734.46 108.09 729.93 100.26 722.57 93.18Q 710.31 81.38 695.19 74.81Q 685.02 70.39 677.93 68.59C 663.38 64.91 645.25 65.06 631.91 72.06C 616.05 80.37 606.82 97.23 606.82 114.51Q 606.85 221.08 606.86 236.61A 0.94 0.93 -0 0 1 605.92 237.54" stroke="rgba(151,153,152,1)" vector-effect="non-scaling-stroke"/><path d="M 567.19 767.18Q 559 760.32 548.41 758.83C 531.99 756.51 516.43 765.29 508.43 779.98Q 501.75 792.24 503.35 808.36Q 505.23 827.24 519.67 838.9C 531.24 848.24 546.85 849.56 560.8 845.64C 571 842.76 582.09 833.52 586.05 822.51Q 590.29 810.75 590.2 799Q 590.08 782.85 590.08 733.26C 590.08 719.9 568.46 720.36 567.9 732.53Q 567.15 748.81 567.78 766.89A 0.36 0.36 -71.11 0 1 567.19 767.18" stroke="rgba(151,153,152,1)" vector-effect="non-scaling-stroke"/><path d="M 397.77 732.13A 13.27 13.03 -20.1 0 0 380.83 724.45A 13.27 13.03 -20.1 0 0 372.85 741.25A 13.27 13.03 -20.1 0 0 389.79 748.93A 13.27 13.03 -20.1 0 0 397.77 732.13" stroke="rgba(151,153,152,1)" vector-effect="non-scaling-stroke"/><path d="M 627.86 771.75A 0.77 0.73 89.24 0 1 627.12 770.99C 627.06 766.74 626.88 762.92 622.39 761.14C 616.54 758.82 609.21 760.01 606.38 766.1Q 605.49 768.01 605.52 772.6Q 605.81 819.65 605.6 833.34C 605.51 838.64 606.4 842.47 610.54 844.94C 615.02 847.61 622.15 847.46 625.78 843.07C 627.96 840.44 628.02 835.34 628.03 832.25Q 628.11 815.3 628.14 799.75C 628.15 792.22 630.44 785.39 637.69 781.95Q 640.62 780.56 643.51 780.77C 646.57 780.99 651.07 782.08 653.51 781.32C 659.28 779.53 661.28 773.78 660.8 768.06C 660.29 762.04 655.48 759.16 650.12 758.11Q 646.61 757.43 642.15 759.18C 636.09 761.56 631.11 765.2 628.39 771.41Q 628.24 771.75 627.86 771.75" stroke="rgba(151,153,152,1)" vector-effect="non-scaling-stroke"/><path d="M 416.57 843.9Q 419.02 845.93 423.67 846.49C 430.68 847.33 436.05 842.57 436.04 835.49C 435.99 814.74 436.04 803.82 436.36 794.6Q 436.54 789.55 437.62 787.41C 441.25 780.22 449.09 777.89 456.67 779.73C 463.79 781.46 467.44 788.8 467.35 795.75Q 467.16 810.53 467.39 833.71Q 467.44 838.59 468.57 840.61C 472.1 846.91 479.52 847.84 485.54 844.56C 489.25 842.53 489.61 837.68 489.69 834.01Q 489.98 819.77 489.74 796C 489.59 781.21 484.36 766.63 468.91 761.3Q 452.77 755.73 436.26 761.23Q 426.71 764.41 421.56 771.3Q 416.64 777.86 415.89 780.42Q 413.28 789.26 413.28 797Q 413.31 831.69 413.34 836.22Q 413.38 841.26 416.57 843.9" stroke="rgba(151,153,152,1)" vector-effect="non-scaling-stroke"/><path d="M 729.22 814.19Q 729.03 814.21 728.8 814.35A 0.72 0.63 -87.53 0 0 728.6 814.56Q 719.64 830.07 701.83 825.63C 685.64 821.59 681.89 800.07 690.74 788.03Q 695.17 782.01 701.29 780.31C 709.78 777.95 720.61 779.37 726.29 786.72C 732.03 794.13 734.89 804.02 737.56 811.73Q 742.67 826.5 754 836.72Q 759.03 841.26 763.63 843.43C 773.65 848.15 786.55 848.59 797.07 846.31C 807.17 844.12 814.8 837.56 820.96 829.96C 829.6 819.32 831.01 804.73 828.14 791.51Q 825.32 778.5 816.26 770.42Q 806.12 761.37 795.27 759.52C 780.71 757.05 764.13 759.88 754.23 771.89A 1.62 1.61 -40.86 0 0 754.09 773.74Q 758.95 782 762.25 792.29A 0.64 0.64 -41.52 0 0 763.44 792.36C 767.09 784.43 774.43 779.4 783.23 779.11C 791.66 778.83 799.01 781.61 802.96 788.54Q 809.24 799.57 805.53 811.9C 801.66 824.72 789.74 828.64 777.71 825.85C 770.31 824.13 766.74 820.05 762.3 814.23C 759.93 811.12 758.86 807.91 757.24 804.26C 754.86 798.89 753.02 791.8 751.36 787.66Q 747.03 776.87 738.4 769.3C 726.03 758.45 708.42 755.96 692.9 761.01C 683.92 763.94 676.94 769.76 671.45 777.14C 664.32 786.72 662.76 798.79 664.13 810.71C 665.58 823.35 673.58 834.04 683.8 840.94C 695.06 848.54 710.44 849.35 722.97 845.61C 728.71 843.89 734.05 840.19 738.19 835.85A 1.64 1.63 -39.35 0 0 738.39 833.86Q 732.39 824.31 729.67 814.51A 0.44 0.43 -8.86 0 0 729.22 814.19" stroke="rgba(151,153,152,1)" vector-effect="non-scaling-stroke"/><path d="M 296.8 770.07A 0.99 0.99 -38.99 0 1 295.44 769.93C 286.48 759.42 272.36 757.17 259.48 759.64Q 252.17 761.04 247.66 764.17Q 239 770.17 235.79 778.34Q 232.48 786.73 232.37 796.47Q 232.09 821.31 232.52 836.22C 232.8 845.44 240.8 847.66 248.7 845.72C 254.02 844.42 254.97 839.06 254.97 834.25Q 254.96 821.52 254.95 800.75Q 254.95 793.46 255.72 789.68C 257.27 782.1 264.63 778.32 272.02 779.23C 280.44 780.27 283.58 788.15 283.6 795.94Q 283.66 812.32 283.45 832.72Q 283.41 837.28 284.06 839.2C 286.25 845.56 293.03 847.67 299.17 845.83C 304.78 844.15 306.3 838.96 306.28 833.5Q 306.13 796.46 306.14 796.23C 306.35 790.38 307.69 785.14 312.37 781.68C 316.77 778.43 323.49 778.37 328.2 780.81C 333.68 783.65 334.63 789.69 334.63 795.5Q 334.63 802.43 334.88 835.92C 334.98 849.55 356.43 850.17 356.97 837.22Q 357.32 828.64 356.98 793.78C 356.86 781.95 352.63 769.19 342.51 763.28C 332.06 757.18 315.47 756.91 305.32 763.3C 302.23 765.24 299.19 768.22 296.8 770.07" stroke="rgba(151,153,152,1)" vector-effect="non-scaling-stroke"/><path d="M 906.91 770.53C 896.83 758.89 881.15 756.45 866.68 760.39C 854.76 763.63 847.22 772.97 844.29 784.66Q 843.22 788.92 843.09 800.76Q 842.84 822.58 843.23 836.47C 843.42 843.27 847.72 845.99 854.03 846.53C 861.05 847.14 865.33 842.09 865.51 835.23Q 865.62 830.58 865.62 797.45C 865.62 794.18 865.9 788.53 867.41 785.92C 870.85 779.99 877.82 778.43 884.37 780.03C 892.42 782 893.78 789.75 893.84 796.75Q 893.91 806.3 893.99 836.15Q 894 841.87 898.38 844.62C 902.45 847.17 909.86 847.61 913.62 843.84C 917.18 840.26 916.81 836.41 916.87 830.13Q 917 815.31 916.95 796.5Q 916.95 792.27 917.93 788.69C 921.44 776 941.91 775.74 944.52 789.24Q 945.2 792.73 945.19 793.81Q 945.13 820.39 945.3 834.65C 945.34 838.06 946.13 840.66 947.58 842.97Q 948.56 844.52 951.67 845.57Q 958.59 847.9 964.04 844.25C 968.89 841.01 968.05 833.03 968.13 827.77Q 968.47 806.04 967.98 793.28C 967.54 782.08 962.86 768.41 952.8 763.02Q 944.02 758.33 933.52 758.59Q 917.78 758.99 907.57 770.53A 0.44 0.44 -90 0 1 906.91 770.53" stroke="rgba(151,153,152,1)" vector-effect="non-scaling-stroke"/><path d="M 396.59 770.22A 10.01 10.01 0 0 0 386.58 760.21L 383.96 760.21A 10.01 10.01 0 0 0 373.95 770.22L 373.95 836.34A 10.01 10.01 0 0 0 383.96 846.35L 386.58 846.35A 10.01 10.01 0 0 0 396.59 836.34L 396.59 770.22" stroke="rgba(151,153,152,1)" vector-effect="non-scaling-stroke"/><path d="M 583.19 236.27L 583.19 220.07A 0.61 0.6 85.89 0 0 582.5 219.47Q 578.96 219.98 576.73 220.1C 566.24 220.66 557.33 215.52 551.14 207.09C 548.48 203.47 548.4 199.07 553.28 197.56Q 556.55 196.55 558.09 198.83C 562.99 206.08 570.08 212.14 579.26 209.03Q 582.83 207.82 582.84 204.16Q 582.98 146.96 582.82 120.25C 582.76 110.72 580.59 99.14 574.61 91.84C 568.21 84.02 558.26 79.35 548.35 78.82C 526.09 77.65 505.49 86.58 488.86 101.31Q 476.6 112.16 472.67 125.35Q 471.82 128.2 470.48 129.1Q 468.27 130.59 466.36 130.64Q 459.14 130.84 453.98 131.16Q 443.19 131.85 432.08 136.89C 416.19 144.1 406.17 157.55 401.94 174.22Q 401.05 177.76 400.88 183.39Q 400.5 196.63 402.97 208.69Q 403.63 211.93 401.45 215.33Q 400.19 217.3 395.58 218.87Q 393.36 219.63 388.22 222C 357.94 235.98 353.55 268.92 363.71 297.44C 365.92 303.66 363.92 307.06 359.78 311.54Q 351.74 320.23 347.65 324.89Q 336.38 337.73 329.61 353.62C 323.34 368.35 321.89 384.89 325.3 400.71C 327.26 409.82 332.58 418.22 338.54 425.96C 341.54 429.85 344.55 431.81 347.74 435.07Q 351.1 438.5 350.26 443.03Q 349.44 447.46 347.72 456.68Q 346.3 464.27 346.88 473.91C 347.97 492.01 359.68 505.41 376.25 511.98Q 386.73 516.14 397.38 517.21Q 399.17 517.39 399.7 517.91C 401.31 519.51 402.1 522.9 401.85 525.02Q 400.52 536.57 400.84 548.78C 401.17 561.44 407.6 574.79 418.21 582.27Q 424.13 586.45 429.13 588.62Q 439.05 592.91 456.4 597.61Q 457.07 597.79 460.88 599.5A 3.6 3.58 -4.1 0 1 462.45 600.85C 467.15 608.24 471.9 614.47 478.78 619.95Q 494.51 632.46 514.73 637.53Q 527.1 640.63 541 639.51C 564.41 637.63 580.43 621.97 582.14 598.42C 582.56 592.65 582.01 584.62 582.06 578.2Q 582.1 573.01 582.39 551.37A 1.01 1.01 84.74 0 0 581.18 550.36C 577.67 551.09 568.54 550.16 569.81 544.48C 570.96 539.35 577.25 540.03 581.78 540.26A 0.69 0.68 -88.43 0 0 582.5 539.57L 582.5 518.58A 1.45 1.45 -85.04 0 0 581.3 517.15C 578.2 516.63 574.48 516.34 571.62 516.33Q 560.78 516.29 526.25 516.7Q 522.63 516.74 519.4 515.97A 1.75 1.7 -14.43 0 1 518.58 515.5Q 516.23 513.06 516.26 510.77Q 516.49 488.21 516 466.02C 515.9 461.36 516.5 454.55 516.16 449.33Q 515.57 440 516.32 425.27Q 516.41 423.51 516.19 421.46A 0.67 0.67 78.51 0 0 515.32 420.88C 511.32 422.13 508.64 423.2 505.39 423.63C 492.16 425.37 480.51 421 471.33 411.54Q 465.62 405.66 463.36 394.14A 4.74 4.74 80.88 0 1 467.42 388.52L 467.64 388.49A 5.18 5.18 81.48 0 1 473.38 392.74C 474.82 400.97 480.35 407.86 488.04 411.47Q 501.24 417.67 514.71 409.47A 2.88 2.87 74.38 0 0 516.09 407.01L 516.09 375.53A 0.65 0.65 -0.86 0 0 515.42 374.88Q 514.25 374.92 512.81 375.34C 502.33 378.4 491.33 376.82 482.4 370.45C 474.22 364.61 469.41 359.62 467.57 349.38C 466.75 344.75 472.56 342.21 475.69 344.72C 477.42 346.11 478.44 350.59 479.47 353.03A 8.5 8.11 17.09 0 0 480.31 354.53Q 488.69 366.43 503.82 366.78C 507.74 366.88 511.51 365.55 514.94 363.79A 2.05 2.04 76.44 0 0 516.05 361.97L 516.05 336.2A 1.18 1.18 0.49 0 0 514.89 335.02C 507.8 334.93 497.83 329.61 495.53 322.59A 2.35 2.33 38.08 0 1 495.42 321.71C 495.6 319.3 497.91 316.26 500.71 317.1Q 502.48 317.63 502.9 318.21Q 507.19 324.06 514.84 324.95A 1.12 1.12 -86.58 0 0 516.09 323.84L 516.09 301.91A 0.33 0.32 -7.59 0 0 515.68 301.6C 511.89 302.66 509.53 303.45 506.26 303.61Q 495.8 304.15 487.22 297.03C 483.26 293.73 484.23 286.99 490.06 287A 2.3 2.25 64.03 0 1 491.49 287.51Q 493.82 289.38 495.25 290.49C 500.59 294.67 507.04 294.04 513.34 291.64C 516.46 290.45 515.96 288.94 516.03 286.29Q 516.55 266.64 515.97 247.27Q 515.81 241.98 516.99 239.59C 518.12 237.28 521.92 237.17 524.25 237.23Q 561.98 238.11 582.13 237.37A 1.1 1.1 -1.08 0 0 583.19 236.27" stroke="rgba(151,153,152,1)" vector-effect="non-scaling-stroke"/><path d="M 697.22 319.21C 703.67 314.32 710.72 319.63 704.46 326.09Q 701 329.65 697.59 332.13A 1.86 1.83 72.31 0 0 696.83 333.63L 696.83 366.1A 1.07 1.07 -3.14 0 0 698.02 367.16C 706.62 366.16 714.28 363.53 719.73 356.38Q 721.63 353.89 722.22 352.18C 723.27 349.12 724.69 345.28 727.47 344.19C 730.4 343.06 733.91 345.01 734.12 348.35C 734.44 353.51 730.56 359.66 727.03 363.57C 719.06 372.42 709.72 376.55 698.03 376.85A 1.21 1.21 -0.73 0 0 696.85 378.06L 696.85 412.65A 1.12 1.12 -86.52 0 0 697.83 413.76C 711.67 415.44 725.15 407.42 728.17 393.42Q 729.22 388.56 734.14 388.71Q 739.71 388.88 738.62 393.82C 736.87 401.71 733.48 409.47 727.15 414.72Q 716.58 423.5 702.8 424.07Q 697.78 424.27 697.36 424.3A 0.61 0.61 -2.56 0 0 696.8 424.91L 696.8 453.67A 1.49 1.48 13.23 0 0 697.63 455Q 700.33 456.32 706.24 459.28Q 715.97 464.16 726.25 462.7Q 736.34 461.27 742.32 455.92Q 749.4 449.59 751.88 440.84A 4.33 4.32 -74.97 0 1 757.1 437.82L 757.56 437.94A 4.84 4.83 14.07 0 1 761.07 443.79C 757.32 458.95 745 470.24 730.06 472.91C 721.54 474.44 712.42 473.43 704.08 469.79C 701.02 468.45 697.98 466.87 697.21 466.97A 0.53 0.53 85.81 0 0 696.75 467.51Q 697.03 487.66 696.59 509.11C 696.51 512.97 691.34 514.93 688.77 516.51Q 684.68 519.02 657.28 534.45C 645.09 541.32 632.43 549.28 620.26 555.85A 2.86 2.86 -13.88 0 0 618.76 558.33Q 618.53 574.99 618.61 590.05Q 618.67 601.58 620.5 607.82Q 623.15 616.86 628.52 623.82C 636.14 633.69 649.49 638.61 660.93 639.41C 669.58 640.02 679.29 639.86 687.97 637.5Q 708.32 631.96 724.52 618.79C 730.42 614 734.29 608.24 738.71 601.19A 2.96 2.92 87.82 0 1 739.47 600.36Q 742 598.48 744.57 597.79Q 755.49 594.84 763.89 591.92Q 775.65 587.82 782.02 583.25C 789.28 578.05 797.42 567.84 799.44 557.94Q 801.6 547.39 800.63 537.81C 800.14 532.97 799.29 528.15 799.24 523.27C 799.2 520.06 800.84 517.86 803.99 517.43Q 816.23 515.75 826.45 511.67C 838.29 506.94 848.75 497.36 852.2 484.98Q 854.28 477.54 854.58 473.42Q 855.55 460.01 852.22 447.19C 850.77 441.6 850.2 437.38 854.85 433.89Q 858.41 431.23 859.29 430.3C 867.79 421.39 874.57 410.73 876.51 398.42Q 879.6 378.82 874.79 362.94Q 868.61 342.48 854.78 326.5Q 843.85 313.86 839.42 308.83C 836.2 305.17 836 302.14 837.71 297.39C 843.26 282 844.6 266.77 839.71 251.28C 836.06 239.71 827.57 230.3 817.48 224.03Q 813.95 221.83 801.81 217.06C 797.94 215.54 798.49 211.72 798.9 207.95C 799.79 199.61 801.32 190.49 800.25 182.66Q 799.05 173.87 798.38 171.08Q 795.74 159.93 788.14 151.2Q 779.96 141.8 770.78 137.51Q 760.32 132.61 750.99 131.49Q 747.98 131.13 736.54 130.8C 731.82 130.66 729.65 128.43 728.22 124.01Q 725.1 114.42 717.7 106.52Q 699.6 87.22 674.29 80.78C 663.78 78.11 649.55 77.3 639.54 82.22C 629.03 87.37 622.12 95.88 619.95 107.54Q 618.65 114.55 618.65 120.43Q 618.65 144.22 618.42 161.66C 618.26 174.06 618.9 189.75 618.38 203.02Q 618.16 208.63 623.81 209.59C 632 210.98 638.17 206.86 642.83 200.35C 644.98 197.34 647.66 195.77 650.61 198.36C 655.99 203.08 648.71 209.9 645.25 212.99Q 634.48 222.63 618.92 219.09A 0.5 0.5 -83.58 0 0 618.31 219.58L 618.31 236.51A 0.83 0.83 -87.36 0 0 619.06 237.34Q 623.5 237.78 628.42 237.6Q 630.33 237.53 637.58 237.59Q 668.15 237.85 689.5 237.6C 693.14 237.56 696.86 238.73 696.84 242.51Q 696.81 248.11 696.92 292.98A 0.68 0.68 -2.02 0 0 697.64 293.65Q 704.44 293.3 709.01 288.71C 710.26 287.46 711.75 286.82 713.31 287.4C 718.33 289.24 717.89 294.39 714.46 297.44Q 708.68 302.57 701.52 303.55Q 699.46 303.83 697.18 304.12A 0.67 0.67 -3.96 0 0 696.6 304.78L 696.6 318.9A 0.39 0.39 -18.34 0 0 697.22 319.21" stroke="rgba(151,153,152,1)" vector-effect="non-scaling-stroke"/><path d="M 671.78 247.64Q 671.18 247.41 670.07 247.39C 655.12 247.11 639.81 247.8 623.35 247.57Q 583.91 247.03 526.71 247.62A 0.83 0.83 -0.35 0 0 525.89 248.45L 525.89 505.86A 0.68 0.68 0.43 0 0 526.56 506.54Q 554.64 506.92 583.15 506.83C 588.88 506.81 596.47 507.32 603.23 506.59A 0.74 0.74 87 0 0 603.89 505.85Q 603.89 304.88 603.83 289.25Q 603.81 284.75 604.26 283.43A 3.29 3.28 -13.89 0 1 604.97 282.26Q 606.61 280.52 609.13 279.36Q 619.4 274.6 632.14 268.04C 647.42 260.17 657.4 255.63 671.82 248.53A 0.49 0.48 -47.8 0 0 671.78 247.64" stroke="rgba(151,153,152,1)" vector-effect="non-scaling-stroke"/><path d="M 628.74 408.68A 7.72 6.56 -87.4 0 0 621.84 416.09A 7.72 6.56 -87.4 0 0 628.04 424.1A 7.72 6.56 -87.4 0 0 634.94 416.69A 7.72 6.56 -87.4 0 0 628.74 408.68" stroke="rgba(151,153,152,1)" vector-effect="non-scaling-stroke"/><path d="M 546.92 153.55C 528.29 152.2 513.31 164.91 512.23 183.74C 511.97 188.28 513.83 192.32 518.97 190.93Q 522.32 190.02 522.46 186.25Q 523.2 166.14 541.51 163.93C 546.56 163.32 552.74 165.02 556.39 168.46Q 558.94 170.86 560.05 170.86Q 562.61 170.87 563.79 169.05C 568.09 162.39 561.83 159.15 556.81 157.14A 0.75 0.74 29.96 0 1 556.5 155.99Q 560.13 151.34 562.81 144.92C 564.87 139.98 565.01 136.08 564.95 130.81C 564.81 119.99 556.94 110.39 547.49 105.73C 540.59 102.33 531.7 102.2 524.75 104.69Q 509.08 110.28 503.64 126.07C 502.22 130.21 501.07 136.04 507.04 136.55Q 509.24 136.74 511.1 135.16Q 512.13 134.28 512.86 131.22Q 515.11 121.78 523.35 116.88C 533.59 110.79 549.4 113.05 553.06 126.15Q 555.29 134.13 552.96 141.58Q 552.45 143.21 550.29 146.34Q 547.93 149.77 547.58 153A 0.61 0.61 -84.76 0 1 546.92 153.55" stroke="rgba(151,153,152,1)" vector-effect="non-scaling-stroke"/><path d="M 432.26 168.26Q 437.38 163.15 440.32 161.71Q 451.85 156.05 463.29 161.18C 470.16 164.25 473.75 171.43 475.86 179.16C 477 183.33 482.36 184.48 484.71 180.62C 487.66 175.74 482.41 165.72 479.31 161.81Q 467.91 147.42 450.37 148.27Q 442.49 148.65 436.37 151.93Q 429.29 155.71 425 160.93C 420.89 165.95 426.23 174.26 432.26 168.26" stroke="rgba(151,153,152,1)" vector-effect="non-scaling-stroke"/><path d="M 441.91 205.04Q 437.76 203.04 433.26 202.67C 427.93 202.24 411.24 203.11 410.38 210.49C 410.05 213.28 413.25 217 416.06 215.82Q 416.2 215.76 419.8 214.16C 424.25 212.19 429.47 212.42 434.56 212.92C 442.49 213.7 448.99 220.99 453.26 225.39A 4.03 4.02 43.04 0 0 459.23 225.19L 459.44 224.94A 5.6 5.6 45.67 0 0 459.52 217.83Q 452.32 208.89 452.79 197.24C 453.02 191.53 454.53 188.9 457.43 183.44Q 459.47 179.59 456.76 176.8Q 455.17 175.15 452.92 175.67C 449.3 176.49 446.87 180.43 445.71 183.67Q 441.92 194.21 442.43 204.7A 0.36 0.36 -78.12 0 1 441.91 205.04" stroke="rgba(151,153,152,1)" vector-effect="non-scaling-stroke"/><path d="M 523.63 208.68C 527.34 206.7 527.68 202.77 524.36 200.07A 3.14 3.01 -14.58 0 0 523.52 199.6Q 521.64 198.93 518.02 198.5Q 506.38 197.11 495.3 200.89C 479.92 206.14 467.13 220.75 466.89 237.5Q 466.77 245.42 467.75 250.48C 468.39 253.78 471.81 257.01 475.36 255.35C 480.69 252.87 477.31 246.91 477.08 242.38C 476.09 222.87 492.34 208.21 511.25 208.44Q 516.12 208.5 519.28 208.99Q 522.21 209.44 523.63 208.68" stroke="rgba(151,153,152,1)" vector-effect="non-scaling-stroke"/><path d="M 451.65 276.25C 452.26 279.11 455.6 279.54 458.05 279.05Q 462.15 278.23 461.96 273.74Q 461.26 256.66 446.54 249.23Q 438.87 245.36 431.51 245.62C 427.33 245.77 423.41 248.59 425.59 253.11Q 426.46 254.9 428.58 255.14Q 433.72 255.7 435.48 256.02Q 445.14 257.77 449.56 266.08C 451.12 268.99 451.05 273.41 451.65 276.25" stroke="rgba(151,153,152,1)" vector-effect="non-scaling-stroke"/><path d="M 410.88 289.96A 1.57 1.57 -87.57 0 1 409.48 291.25Q 400.51 292.13 393.13 286.55Q 387.04 281.94 386.24 273.51C 385.85 269.4 385.96 263.5 388.33 260.27Q 389.19 259.11 390.38 256.24Q 391.97 252.37 388.52 250.69C 383.94 248.46 380.09 252.72 378.64 256.92C 376.88 261.99 374.87 268.56 375.73 274.14Q 377.26 284.03 382.2 290.35C 389.41 299.58 400.97 303.48 412.94 300.74A 0.95 0.94 -22.01 0 1 413.94 301.16C 416.65 305.44 418.18 308.03 421.76 312.46Q 423.87 315.06 424.55 316.65C 427.74 323.99 426.64 332.5 422.6 339.17A 4.2 4.19 -59.42 0 0 424.09 344.97L 424.49 345.2A 5.33 5.31 -58.57 0 0 431.62 343.47Q 435.91 336.82 436.81 328.5C 438.02 317.33 433.29 308.77 426.01 300.76Q 421 295.24 421.61 287.62C 422.08 281.66 425.18 277.75 429.6 273.93C 432.54 271.4 432.98 268.09 429.99 265.31C 427.71 263.2 424.13 264.7 422 266.27Q 416.34 270.43 413.69 277.19Q 411.59 282.54 411.38 285.06Q 411.06 288.94 410.88 289.96" stroke="rgba(151,153,152,1)" vector-effect="non-scaling-stroke"/><path d="M 440.49 383.3Q 441.7 380.27 440.32 377.6C 438.32 373.76 433.15 375.24 428.7 375.94Q 424.52 376.59 421.67 376.38C 401.62 374.89 386.28 361.61 386.38 340.91Q 386.41 333.58 386.71 330.68C 387.02 327.7 386 325.29 383.07 324.95Q 378.56 324.42 377.41 328.58C 374.71 338.34 375.4 346.34 378.58 355.97Q 383.07 369.57 395.08 378.14Q 402.57 383.49 410.47 385.28Q 423.17 388.15 436.68 385.45Q 438.25 385.14 439.85 384.09A 1.73 1.67 85.1 0 0 440.49 383.3" stroke="rgba(151,153,152,1)" vector-effect="non-scaling-stroke"/><path d="M 390.88 401.02C 391.29 396.18 388.75 395.16 384.65 394.15C 372.87 391.24 362.03 392.16 352.76 400.25C 349 403.53 346.92 407.37 344.45 411.73C 342.15 415.79 342.63 423.64 343.43 428.11Q 343.75 429.91 345.5 430.88Q 349.9 433.32 352.46 428.99A 1.86 1.85 61.1 0 0 352.72 428.08C 352.86 424.2 352.56 421.93 353.44 418.47C 356.96 404.64 369.75 399.95 382.7 404.46C 386.4 405.75 390.49 405.74 390.88 401.02" stroke="rgba(151,153,152,1)" vector-effect="non-scaling-stroke"/><path d="M 410.29 418.03C 408.29 415.86 404.08 412.4 401.27 414.6C 396.41 418.4 399.76 422.89 403.44 425.61Q 417.43 435.95 433.85 432.54Q 441.03 431.05 446.66 427.16C 451.5 423.82 463.87 414.05 455.97 408.37C 451.8 405.36 446.71 413.71 444.27 415.82C 434.57 424.21 422.47 425.46 411.38 418.91A 4.82 4.8 -6 0 1 410.29 418.03" stroke="rgba(151,153,152,1)" vector-effect="non-scaling-stroke"/><path d="M 507.94 458.79C 505.83 454.85 503 454.95 499.59 456.86C 497.11 458.25 495.38 459.61 492.78 460.61C 486.83 462.92 481.06 463.82 474.71 462.48Q 468.55 461.18 467.68 460.85Q 457.74 457 452.56 448.39C 450.96 445.74 450.37 441.79 448.53 438.95C 446.32 435.55 441.44 438.01 440.2 440.96C 439.22 443.27 440.43 447.12 441.37 449.14Q 446.91 461.07 457.58 467.67Q 467.58 473.86 480.09 473.56Q 492.38 473.27 502.63 467.19C 505.3 465.6 509.81 462.27 507.94 458.79" stroke="rgba(151,153,152,1)" vector-effect="non-scaling-stroke"/><path d="M 409.39 491.26A 1.19 1.18 -30.12 0 1 409.78 489.8Q 419.72 482.74 425.46 472.45C 427.59 468.65 428.39 461.82 422.06 461.38A 3.59 3.57 -70.24 0 0 418.87 462.89Q 417.48 464.87 415.52 468.58C 411.61 475.95 406.66 481.04 398.5 483.89C 391.05 486.48 383.96 485.2 377.53 480.93Q 375.27 479.43 373.79 476.39Q 368.3 465.1 375.27 454.73Q 377.86 450.88 378.05 450.57C 381.06 445.68 375.2 440.66 370.8 444.56Q 365.75 449.03 363.68 455.4Q 361.49 462.16 361.34 464.69Q 360.52 477.94 369.1 486.97C 376.29 494.54 388.24 496.95 398.39 494.34A 1 0.99 -17.33 0 1 399.58 494.96C 400.44 497.31 403.88 507.16 406.64 508.39C 409.4 509.61 413.07 507.97 413.58 504.73C 414.2 500.72 411.23 495.27 409.39 491.26" stroke="rgba(151,153,152,1)" vector-effect="non-scaling-stroke"/><path d="M 487.44 507.78C 486.42 501.21 477.36 503.33 477.35 508.65C 477.32 520.8 481.34 532.2 491.37 539.65Q 504.78 549.6 520.77 545.46Q 524.17 544.58 525.29 543.22C 527.69 540.31 525.59 535.71 522.23 534.78A 2.42 2.39 45.47 0 0 521.01 534.76C 516.41 535.93 510.37 537.31 505.51 535.68Q 490.39 530.61 487.91 515.06C 487.56 512.86 487.8 510.07 487.44 507.78" stroke="rgba(151,153,152,1)" vector-effect="non-scaling-stroke"/><path d="M 454.15 515.06C 457.72 514.55 457.54 510.3 456.49 507.81C 455.34 505.11 451.78 505.29 449.28 505.6C 444.73 506.15 439.03 507.19 434.99 509.81C 418.26 520.66 410.83 537.69 418.14 557.32C 419.75 561.63 424.45 573.13 430.79 568.02C 434.2 565.27 432.79 562.13 430.66 558.77Q 423.67 547.69 427.24 535.11Q 431.58 519.84 447.66 516.16Q 449.47 515.74 454.15 515.06" stroke="rgba(151,153,152,1)" vector-effect="non-scaling-stroke"/><path d="M 528.71 566.6Q 527.96 567.09 524.67 571.32C 516.74 581.52 505.57 585.1 493.47 580.36Q 483.3 576.38 478.94 564.78Q 478.42 563.4 477.77 556.46A 4.56 4.56 85.75 0 0 472.98 552.33L 472.72 552.35A 4.98 4.97 0.13 0 0 468.02 557.02Q 467.34 568.9 473.86 577.8Q 484.81 592.73 503.65 592.62Q 513.6 592.56 520.75 588.2Q 528.22 583.65 533.95 575.45C 536.61 571.63 535.79 565.18 529.74 566.19A 2.56 2.54 -66.54 0 0 528.71 566.6" stroke="rgba(151,153,152,1)" vector-effect="non-scaling-stroke"/><path d="M 551.82 557.87Q 553.13 561.98 554.05 564.06C 556.81 570.27 556.25 576.63 553.39 582.47Q 549.37 590.68 539.13 591.58C 536.82 591.78 531.67 590.3 529.54 592.05C 527.33 593.86 525.48 598.96 529.15 600.51Q 531.41 601.47 533.16 601.64Q 551.54 603.43 560.92 589.61Q 564.75 583.97 565.6 577.69C 566.56 570.62 565.88 561.42 561.6 555.51C 558.99 551.91 555.58 551.08 552.45 554.74A 3.3 3.3 56.41 0 0 551.82 557.87" stroke="rgba(151,153,152,1)" vector-effect="non-scaling-stroke"/><path d="M 645.03 156.21A 0.55 0.55 60.37 0 1 644.79 157.09Q 641.97 158.02 639.07 160.22C 635.68 162.8 634.66 167.38 638.49 170.27C 639.9 171.33 642.61 170.99 643.78 169.98Q 651.75 163.06 661.39 164.41Q 675.68 166.4 678.57 181.45Q 679.23 184.88 679.18 187.8A 2.69 2.67 15.43 0 0 680.54 190.18C 684.62 192.49 688.88 190.86 689.13 186.02C 689.48 178.94 686.99 171.12 682.69 165.48Q 673.73 153.75 657.61 153.3Q 657.28 153.29 656.12 153.47Q 656.07 153.48 654.65 153.54A 0.52 0.51 -6.4 0 1 654.12 153.12L 653.78 151.02A 3.7 3.68 23.62 0 0 653.21 149.58C 651.97 147.47 649.13 143.84 648.26 141.02Q 646.05 133.91 647.93 128C 651.99 115.21 663.24 110.98 675.28 115.46Q 681.18 117.66 685.37 123.61A 7.76 7.47 17.33 0 1 686.21 125.14Q 687.22 127.66 688.69 132Q 689.79 135.25 691.02 136.01C 693.59 137.59 699.04 136.37 698.9 132.37C 698.51 121.23 691.21 111.51 681.99 106.65C 672.67 101.72 660.97 101.71 651.93 107.14Q 641.19 113.6 637.71 124.85C 634.53 135.14 637.7 147.62 645.03 156.21" stroke="rgba(151,153,152,1)" vector-effect="non-scaling-stroke"/><path d="M 769.2 168.31C 775.26 174.33 780.62 165.97 776.48 160.94Q 772.17 155.7 765.05 151.91Q 758.9 148.63 750.99 148.25Q 733.37 147.42 721.94 161.89C 718.83 165.82 713.57 175.89 716.54 180.78C 718.9 184.66 724.29 183.5 725.43 179.31C 727.54 171.54 731.13 164.33 738.03 161.23Q 749.51 156.07 761.1 161.74Q 764.05 163.18 769.2 168.31" stroke="rgba(151,153,152,1)" vector-effect="non-scaling-stroke"/><path d="M 758.96 204.45Q 759.59 193.47 755.38 183.06Q 755.34 182.95 754.73 181.28C 753.4 177.59 749.97 174.46 745.89 176.63C 742.4 178.48 742.64 181.42 744.67 184.51Q 746.55 187.37 746.81 188.25C 749.61 197.76 749.43 207.83 743.29 215.91C 740.71 219.31 739.39 222.04 742.43 225.12C 745.58 228.31 748.52 226.28 751.01 223.08C 756.12 216.54 762.28 212.92 770.73 212.67Q 778.57 212.43 784.08 215.26Q 786.22 216.36 787.22 216.25C 790.08 215.95 791.56 211.84 791.14 209.47C 790.68 206.94 787.74 205.62 785.24 204.78Q 772.27 200.4 759.5 204.86A 0.41 0.41 -7.68 0 1 758.96 204.45" stroke="rgba(151,153,152,1)" vector-effect="non-scaling-stroke"/><path d="M 722.8 250.64C 722.11 256.33 731.47 257.34 732.74 253.21C 737.52 237.7 733.1 218.98 720.28 208.68Q 714.2 203.8 708.67 201.61Q 696.1 196.64 682.37 198.62Q 678.64 199.16 677.55 200.2C 675.12 202.5 675.16 207.05 678.31 208.77Q 679.32 209.32 682.98 208.92C 691.33 207.99 696.87 208.37 704.53 211.13C 716.55 215.48 723.61 227.16 724.31 239.77C 724.52 243.57 723.25 246.92 722.8 250.64" stroke="rgba(151,153,152,1)" vector-effect="non-scaling-stroke"/><path d="M 749.31 252.93C 743.5 258.2 740.25 264.98 739.67 272.84C 739.39 276.63 740.76 279.57 744.74 279.51C 747.87 279.46 749.15 277.85 749.68 274.64C 750.58 269.33 752.13 264 756.09 260.42C 760.05 256.83 765.51 255.81 770.89 255.45C 774.13 255.24 775.86 254.12 776.22 251.01C 776.67 247.06 773.88 245.4 770.08 245.3C 762.2 245.1 755.13 247.66 749.31 252.93" stroke="rgba(151,153,152,1)" vector-effect="non-scaling-stroke"/><path d="M 791.13 291.12A 0.87 0.86 -88.68 0 1 790.42 290.37C 790.02 287.03 789.9 283.88 789.08 281.17Q 786.51 272.69 780.54 267.19C 777.33 264.24 772.71 262.4 770.24 267.28Q 768.65 270.43 770.72 272.49Q 776.32 278.04 776.98 279.18Q 780.07 284.49 779.7 291.32C 779.37 297.54 775.82 301.04 771.68 305.77C 767.22 310.87 764.5 318.17 764.33 324.75C 764.23 328.57 767.68 350.71 776.96 345.33C 782.39 342.18 777.71 337.11 776.18 333.34Q 774.23 328.54 775.23 320.82C 775.83 316.22 780.21 311.7 783.49 307.94A 7.66 7.62 -10.35 0 0 784.47 306.53L 787.14 301.58A 1.45 1.43 19 0 1 788.66 300.85Q 807.33 304.16 819.26 290.85A 5.91 5.87 80.01 0 0 820.15 289.57Q 823.2 283.79 823.91 281.68Q 828.04 269.57 823.17 257.5Q 821.28 252.83 819.49 251.33C 815.43 247.95 808.23 251.46 811.61 257.45C 815.83 264.93 816.98 275.31 811.91 282.69C 809.28 286.52 803.51 290.8 799.01 291.31Q 794.96 291.77 791.13 291.12" stroke="rgba(151,153,152,1)" vector-effect="non-scaling-stroke"/><path d="M 816.88 325.74A 3.65 3.63 -12.25 0 0 814.81 328.94Q 814.78 330.15 815.06 337.02C 815.58 350 811.97 362.3 801.15 369.76C 790.83 376.88 779.26 377.01 767.38 374.88C 760.45 373.64 759.12 384.27 765.18 385.37C 779.26 387.93 794.02 387.08 806.01 378.75Q 820.09 368.97 824.22 352.22Q 826.94 341.17 825.07 331.54C 824.22 327.11 821.82 323.37 816.88 325.74" stroke="rgba(151,153,152,1)" vector-effect="non-scaling-stroke"/><path d="M 810.53 402.24Q 811.8 407.48 817.24 406.09Q 821.14 405.09 825.06 404.16Q 831.59 402.62 839.16 406.12C 846.35 409.44 849.11 419.6 848.8 426.68C 848.5 433.45 857.66 433.28 858.49 426.48C 859.49 418.24 858.2 411.4 852.97 404.76Q 843.44 392.66 827.55 393.36C 824.16 393.5 820.48 394.43 816.36 395.33Q 811.21 396.46 810.49 401.13A 2.87 2.84 -47.33 0 0 810.53 402.24" stroke="rgba(151,153,152,1)" vector-effect="non-scaling-stroke"/><path d="M 743.23 411.36Q 742.8 414 743.44 414.92C 749.66 423.87 758.98 431.45 769.8 432.94C 780.56 434.41 790.59 431.82 799.15 425.13C 802.35 422.63 804.8 417.96 800.59 415.02Q 797.56 412.91 795.22 414.82Q 791.23 418.07 790.26 418.91A 6.63 6.32 -77.33 0 1 788.82 419.87Q 774.93 426.75 760.94 419.02A 4.01 3.81 -6.66 0 1 760.06 418.36Q 758.63 416.93 756.82 415.33C 754.87 413.6 753.37 410.51 751.23 409.27Q 746.63 406.62 743.69 410.31A 2.3 2.21 -22.45 0 0 743.23 411.36" stroke="rgba(151,153,152,1)" vector-effect="non-scaling-stroke"/><path d="M 802.43 494.52C 811.94 496.75 823.2 495.06 830.69 488.55C 837.9 482.3 842.18 471.55 839.87 461.97C 838.33 455.62 835.99 449.37 831.34 444.88C 827.01 440.71 820.73 445.12 823.52 450.73C 825.65 455.04 828.99 459.44 829.34 463.39Q 829.95 470.31 829.01 473.53C 826.33 482.67 816.47 486.21 807.71 485.11Q 803.85 484.62 797.81 481.5C 792.98 479.02 788.71 473.72 786.14 469.36C 783.96 465.64 781.35 459.1 776.12 462.77C 771.36 466.12 777.36 475.48 779.76 478.5Q 785.19 485.32 791.85 490.35A 0.97 0.97 -58.61 0 1 792.14 491.55C 789.84 496.36 788.74 498.58 787.7 502.57C 786.51 507.16 791.27 510.24 795.1 507.82C 797.81 506.11 799.97 499.3 801.61 494.95A 0.71 0.7 17.09 0 1 802.43 494.52" stroke="rgba(151,153,152,1)" vector-effect="non-scaling-stroke"/><path d="M 714.19 507.64C 713.85 509.92 714.11 512.69 713.77 514.88Q 711.42 530.33 696.44 535.47C 691.62 537.12 685.61 535.79 681.04 534.66A 2.41 2.37 -45.86 0 0 679.83 534.69C 676.5 535.64 674.44 540.22 676.84 543.09Q 677.97 544.44 681.35 545.29Q 697.26 549.29 710.51 539.32C 720.42 531.85 724.33 520.5 724.22 508.44C 724.17 503.16 715.16 501.11 714.19 507.64" stroke="rgba(151,153,152,1)" vector-effect="non-scaling-stroke"/><path d="M 768.65 566.1C 770.78 570.37 775.94 569.83 778.46 566.16Q 788.65 551.33 785.04 533.47C 782.97 523.2 775.16 514.34 766.06 509.39Q 758.79 505.43 749.84 505.4C 746.68 505.39 744.19 507.01 744.22 510.07Q 744.25 514.6 749.07 515.26C 757.91 516.48 765.95 519.6 770.91 527.6Q 779.14 540.87 772.83 555Q 771.82 557.28 770.83 558.78C 769.36 561.03 767.6 563.98 768.65 566.1" stroke="rgba(151,153,152,1)" vector-effect="non-scaling-stroke"/><path d="M 704.57 581.4C 694.83 583.85 684.89 581.08 679.16 573.02Q 678.28 571.78 675.86 568.26C 671.84 562.39 664.23 568.33 667.32 573.83Q 678.92 594.43 702.77 592.4Q 703.35 592.35 707.08 591.41Q 710.81 590.48 711.35 590.25Q 733.33 580.78 733.83 557.14C 733.96 550.84 724.44 549.19 723.67 556.26Q 723.2 560.51 723.01 562.02C 721.76 571.83 714.31 578.96 704.57 581.4" stroke="rgba(151,153,152,1)" vector-effect="non-scaling-stroke"/><path d="M 673.82 595.45A 5.09 5.08 -11.13 0 0 667.73 591.37Q 656.24 593.87 649.2 583.87Q 647.55 581.53 646.89 579.04Q 644.26 569.01 649.09 559.68Q 651.5 555.01 647.25 553.06C 639.1 549.32 636.35 565.1 635.84 570.31C 635.01 578.72 638.49 589.58 644.93 594.84Q 647.16 596.66 650.26 598.63C 655.92 602.24 663.16 602.3 670.03 601.28A 4.62 4.62 80.74 0 0 673.9 595.9L 673.82 595.45" stroke="rgba(151,153,152,1)" vector-effect="non-scaling-stroke"/><path d="M 546.41 778.91A 23.88 21.46 -90.5 0 0 525.16 802.98A 23.88 21.46 -90.5 0 0 546.83 826.67A 23.88 21.46 -90.5 0 0 568.08 802.6A 23.88 21.46 -90.5 0 0 546.41 778.91" stroke="rgba(151,153,152,1)" vector-effect="non-scaling-stroke"/></g><path d="M 1222 0L 1222 934L 0 934L 0 0L 1222 0Z" fill="none"/><path d="M 605.92 237.54A 0.94 0.93 0 0 0 606.86 236.61Q 606.85 221.08 606.82 114.51C 606.82 97.23 616.05 80.37 631.91 72.06C 645.25 65.06 663.38 64.91 677.93 68.59Q 685.02 70.39 695.19 74.81Q 710.31 81.38 722.57 93.18C 729.93 100.26 734.46 108.09 739.15 117.16A 1.58 1.57 -11.32 0 0 740.42 118C 747.34 118.51 754.72 118.55 761.42 120.34Q 775.34 124.07 787.18 132.63C 796.84 139.61 802.11 147.33 807.01 158.25C 814 173.84 813.77 188.99 811.05 205.92A 1.64 1.63 16.02 0 0 812.03 207.68C 817.89 210.14 820.74 211.12 825.1 213.84C 833.35 218.98 840.1 224.82 845.15 233.55C 854.41 249.53 857.76 268.83 853.37 287.11Q 851.73 293.97 850.18 299.02Q 849.17 302.33 851.43 304.3C 864 315.29 871.96 327.37 881.3 344.04Q 882.8 346.72 886.33 357.89Q 896.39 389.69 882.69 419.01Q 877.88 429.3 866.03 441.02Q 865.66 441.39 864.33 443.26A 1.4 1.39 52.14 0 0 864.17 444.57Q 864.19 444.61 865.71 450.75C 867.63 458.52 867.56 467.27 867.1 475.35C 866.63 483.8 863.32 491.9 859.58 499.33Q 856.13 506.21 850.01 511.51C 838.83 521.2 827.3 526.22 813.11 528.83A 1.03 1.03 81.46 0 0 812.27 529.97Q 813.37 539.22 813.52 546.48Q 813.64 551.74 811.58 560.31Q 806.24 582.56 786.92 594.68C 783.78 596.65 779.09 599.58 774.75 601.28Q 763.11 605.85 749.31 609.75C 747.9 610.15 746.49 611.7 745.55 613.08Q 736.88 625.77 724.58 634.48C 713.87 642.07 700.6 646.91 686.99 650.16Q 682.25 651.29 672 651.97Q 659.15 652.83 647.56 649.73Q 634.87 646.33 625.85 638.59Q 614.21 628.59 609.6 614.2Q 608.46 610.66 607.53 601.94Q 607.02 597.15 607.09 589.53Q 607.24 574.13 606.4 565.78Q 606.25 564.21 605.2 560.67A 4.6 4.23 37.43 0 1 605.03 559.7C 604.57 552.5 604.09 546.97 604.12 540.43Q 604.18 527.86 604.11 518.59A 2.17 2.17 89.87 0 0 601.94 516.43L 596.58 516.43A 2.39 2.38 89.64 0 0 594.2 518.85Q 594.34 534.76 594.24 543.13C 594.03 560.84 594.85 583.06 593.94 600.49Q 593.62 606.55 591.84 613.82C 588.77 626.38 578.81 637.39 567.99 644.04C 564.45 646.22 559.58 647.76 556.62 648.85Q 551.64 650.7 545.77 651.35Q 530.17 653.1 517.01 650.72C 505.96 648.73 493.45 644.2 482.84 638.2C 471.67 631.89 462.6 622.93 455.58 612.45Q 454.06 610.18 450.88 609.36Q 437.24 605.82 426.39 601.28Q 422.64 599.71 420.04 598.12C 417.07 596.32 414.35 594.96 411.96 593.23Q 389.36 576.89 388.13 548.7C 387.86 542.32 388.7 536.92 389.35 529.92A 1.1 1.1 -81.5 0 0 388.48 528.74C 370.96 525.09 351.96 516.54 342.38 500Q 332.38 482.74 333.81 463.61C 334.29 457.27 335.73 451.72 337.42 443.97A 1.87 1.85 23.07 0 0 336.62 442.01Q 335.63 441.37 334.49 440.12C 328.06 433.07 323.24 428.44 319.63 421.41C 314.25 410.94 311.08 398.37 311.15 386.21Q 311.24 371.97 313.82 362.32Q 314.3 360.52 317.23 351.8Q 318.95 346.67 321.57 341.67Q 332.58 320.59 349.96 304.2Q 352.21 302.07 351.45 299.58Q 348.81 290.91 348.13 287.89Q 342.75 264.11 351.26 243.35C 356.96 229.47 366.77 218.62 380.08 212.11Q 385.21 209.59 389.34 207.94A 1.08 1.07 -14.63 0 0 390.01 206.8C 388.77 197.01 388.08 187.79 388.91 178.11C 389.86 167.19 394.65 155.53 400.7 146.95C 409.84 133.98 423.82 125.22 439.15 120.75C 446.18 118.7 453.25 118.49 460.95 118.14A 1.31 1.3 -76.2 0 0 462.03 117.48C 464.21 113.63 466.46 108.54 468.97 105.01Q 480.81 88.35 499.12 78.39C 516.24 69.08 535.7 64.04 554.9 67.11C 563 68.41 572.16 72.34 578.44 78.1Q 589.81 88.54 593.42 103.88Q 594.83 109.9 594.65 124.67Q 594.23 158.52 594.56 172.02Q 594.91 186.47 594.53 203.98Q 594.34 212.85 594.5 236.01A 1.54 1.54 89.81 0 0 596.04 237.54L 605.92 237.54Z" fill="#3a3c40"/><path d="M 583.19 236.27A 1.1 1.1 -1.08 0 1 582.13 237.37Q 561.98 238.11 524.25 237.23C 521.92 237.17 518.12 237.28 516.99 239.59Q 515.81 241.98 515.97 247.27Q 516.55 266.64 516.03 286.29C 515.96 288.94 516.46 290.45 513.34 291.64C 507.04 294.04 500.59 294.67 495.25 290.49Q 493.82 289.38 491.49 287.51A 2.3 2.25 64.03 0 0 490.06 287C 484.23 286.99 483.26 293.73 487.22 297.03Q 495.8 304.15 506.26 303.61C 509.53 303.45 511.89 302.66 515.68 301.6A 0.33 0.32 -7.59 0 1 516.09 301.91L 516.09 323.84A 1.12 1.12 -86.58 0 1 514.84 324.95Q 507.19 324.06 502.9 318.21Q 502.48 317.63 500.71 317.1C 497.91 316.26 495.6 319.3 495.42 321.71A 2.35 2.33 38.08 0 0 495.53 322.59C 497.83 329.61 507.8 334.93 514.89 335.02A 1.18 1.18 0.49 0 1 516.05 336.2L 516.05 361.97A 2.05 2.04 76.44 0 1 514.94 363.79C 511.51 365.55 507.74 366.88 503.82 366.78Q 488.69 366.43 480.31 354.53A 8.5 8.11 17.09 0 1 479.47 353.03C 478.44 350.59 477.42 346.11 475.69 344.72C 472.56 342.21 466.75 344.75 467.57 349.38C 469.41 359.62 474.22 364.61 482.4 370.45C 491.33 376.82 502.33 378.4 512.81 375.34Q 514.25 374.92 515.42 374.88A 0.65 0.65 -0.86 0 1 516.09 375.53L 516.09 407.01A 2.88 2.87 74.38 0 1 514.71 409.47Q 501.24 417.67 488.04 411.47C 480.35 407.86 474.82 400.97 473.38 392.74A 5.18 5.18 81.48 0 0 467.64 388.49L 467.42 388.52A 4.74 4.74 80.88 0 0 463.36 394.14Q 465.62 405.66 471.33 411.54C 480.51 421 492.16 425.37 505.39 423.63C 508.64 423.2 511.32 422.13 515.32 420.88A 0.67 0.67 78.51 0 1 516.19 421.46Q 516.41 423.51 516.32 425.27Q 515.57 440 516.16 449.33C 516.5 454.55 515.9 461.36 516 466.02Q 516.49 488.21 516.26 510.77Q 516.23 513.06 518.58 515.5A 1.75 1.7 -14.43 0 0 519.4 515.97Q 522.63 516.74 526.25 516.7Q 560.78 516.29 571.62 516.33C 574.48 516.34 578.2 516.63 581.3 517.15A 1.45 1.45 -85.04 0 1 582.5 518.58L 582.5 539.57A 0.69 0.68 -88.43 0 1 581.78 540.26C 577.25 540.03 570.96 539.35 569.81 544.48C 568.54 550.16 577.67 551.09 581.18 550.36A 1.01 1.01 84.74 0 1 582.39 551.37Q 582.1 573.01 582.06 578.2C 582.01 584.62 582.56 592.65 582.14 598.42C 580.43 621.97 564.41 637.63 541 639.51Q 527.1 640.63 514.73 637.53Q 494.51 632.46 478.78 619.95C 471.9 614.47 467.15 608.24 462.45 600.85A 3.6 3.58 -4.1 0 0 460.88 599.5Q 457.07 597.79 456.4 597.61Q 439.05 592.91 429.13 588.62Q 424.13 586.45 418.21 582.27C 407.6 574.79 401.17 561.44 400.84 548.78Q 400.52 536.57 401.85 525.02C 402.1 522.9 401.31 519.51 399.7 517.91Q 399.17 517.39 397.38 517.21Q 386.73 516.14 376.25 511.98C 359.68 505.41 347.97 492.01 346.88 473.91Q 346.3 464.27 347.72 456.68Q 349.44 447.46 350.26 443.03Q 351.1 438.5 347.74 435.07C 344.55 431.81 341.54 429.85 338.54 425.96C 332.58 418.22 327.26 409.82 325.3 400.71C 321.89 384.89 323.34 368.35 329.61 353.62Q 336.38 337.73 347.65 324.89Q 351.74 320.23 359.78 311.54C 363.92 307.06 365.92 303.66 363.71 297.44C 353.55 268.92 357.94 235.98 388.22 222Q 393.36 219.63 395.58 218.87Q 400.19 217.3 401.45 215.33Q 403.63 211.93 402.97 208.69Q 400.5 196.63 400.88 183.39Q 401.05 177.76 401.94 174.22C 406.17 157.55 416.19 144.1 432.08 136.89Q 443.19 131.85 453.98 131.16Q 459.14 130.84 466.36 130.64Q 468.27 130.59 470.48 129.1Q 471.82 128.2 472.67 125.35Q 476.6 112.16 488.86 101.31C 505.49 86.58 526.09 77.65 548.35 78.82C 558.26 79.35 568.21 84.02 574.61 91.84C 580.59 99.14 582.76 110.72 582.82 120.25Q 582.98 146.96 582.84 204.16Q 582.83 207.82 579.26 209.03C 570.08 212.14 562.99 206.08 558.09 198.83Q 556.55 196.55 553.28 197.56C 548.4 199.07 548.48 203.47 551.14 207.09C 557.33 215.52 566.24 220.66 576.73 220.1Q 578.96 219.98 582.5 219.47A 0.61 0.6 85.89 0 1 583.19 220.07L 583.19 236.27Z" fill="#f4f5ef"/><path d="M 697.22 319.21A 0.39 0.39 -18.34 0 1 696.6 318.9L 696.6 304.78A 0.67 0.67 -3.96 0 1 697.18 304.12Q 699.46 303.83 701.52 303.55Q 708.68 302.57 714.46 297.44C 717.89 294.39 718.33 289.24 713.31 287.4C 711.75 286.82 710.26 287.46 709.01 288.71Q 704.44 293.3 697.64 293.65A 0.68 0.68 -2.02 0 1 696.92 292.98Q 696.81 248.11 696.84 242.51C 696.86 238.73 693.14 237.56 689.5 237.6Q 668.15 237.85 637.58 237.59Q 630.33 237.53 628.42 237.6Q 623.5 237.78 619.06 237.34A 0.83 0.83 -87.36 0 1 618.31 236.51L 618.31 219.58A 0.5 0.5 -83.58 0 1 618.92 219.09Q 634.48 222.63 645.25 212.99C 648.71 209.9 655.99 203.08 650.61 198.36C 647.66 195.77 644.98 197.34 642.83 200.35C 638.17 206.86 632 210.98 623.81 209.59Q 618.16 208.63 618.38 203.02C 618.9 189.75 618.26 174.06 618.42 161.66Q 618.65 144.22 618.65 120.43Q 618.65 114.55 619.95 107.54C 622.12 95.88 629.03 87.37 639.54 82.22C 649.55 77.3 663.78 78.11 674.29 80.78Q 699.6 87.22 717.7 106.52Q 725.1 114.42 728.22 124.01C 729.65 128.43 731.82 130.66 736.54 130.8Q 747.98 131.13 750.99 131.49Q 760.32 132.61 770.78 137.51Q 779.96 141.8 788.14 151.2Q 795.74 159.93 798.38 171.08Q 799.05 173.87 800.25 182.66C 801.32 190.49 799.79 199.61 798.9 207.95C 798.49 211.72 797.94 215.54 801.81 217.06Q 813.95 221.83 817.48 224.03C 827.57 230.3 836.06 239.71 839.71 251.28C 844.6 266.77 843.26 282 837.71 297.39C 836 302.14 836.2 305.17 839.42 308.83Q 843.85 313.86 854.78 326.5Q 868.61 342.48 874.79 362.94Q 879.6 378.82 876.51 398.42C 874.57 410.73 867.79 421.39 859.29 430.3Q 858.41 431.23 854.85 433.89C 850.2 437.38 850.77 441.6 852.22 447.19Q 855.55 460.01 854.58 473.42Q 854.28 477.54 852.2 484.98C 848.75 497.36 838.29 506.94 826.45 511.67Q 816.23 515.75 803.99 517.43C 800.84 517.86 799.2 520.06 799.24 523.27C 799.29 528.15 800.14 532.97 800.63 537.81Q 801.6 547.39 799.44 557.94C 797.42 567.84 789.28 578.05 782.02 583.25Q 775.65 587.82 763.89 591.92Q 755.49 594.84 744.57 597.79Q 742 598.48 739.47 600.36A 2.96 2.92 87.82 0 0 738.71 601.19C 734.29 608.24 730.42 614 724.52 618.79Q 708.32 631.96 687.97 637.5C 679.29 639.86 669.58 640.02 660.93 639.41C 649.49 638.61 636.14 633.69 628.52 623.82Q 623.15 616.86 620.5 607.82Q 618.67 601.58 618.61 590.05Q 618.53 574.99 618.76 558.33A 2.86 2.86 -13.88 0 1 620.26 555.85C 632.43 549.28 645.09 541.32 657.28 534.45Q 684.68 519.02 688.77 516.51C 691.34 514.93 696.51 512.97 696.59 509.11Q 697.03 487.66 696.75 467.51A 0.53 0.53 85.81 0 1 697.21 466.97C 697.98 466.87 701.02 468.45 704.08 469.79C 712.42 473.43 721.54 474.44 730.06 472.91C 745 470.24 757.32 458.95 761.07 443.79A 4.84 4.83 14.07 0 0 757.56 437.94L 757.1 437.82A 4.33 4.32 -74.97 0 0 751.88 440.84Q 749.4 449.59 742.32 455.92Q 736.34 461.27 726.25 462.7Q 715.97 464.16 706.24 459.28Q 700.33 456.32 697.63 455A 1.49 1.48 13.23 0 1 696.8 453.67L 696.8 424.91A 0.61 0.61 -2.56 0 1 697.36 424.3Q 697.78 424.27 702.8 424.07Q 716.58 423.5 727.15 414.72C 733.48 409.47 736.87 401.71 738.62 393.82Q 739.71 388.88 734.14 388.71Q 729.22 388.56 728.17 393.42C 725.15 407.42 711.67 415.44 697.83 413.76A 1.12 1.12 -86.52 0 1 696.85 412.65L 696.85 378.06A 1.21 1.21 -0.73 0 1 698.03 376.85C 709.72 376.55 719.06 372.42 727.03 363.57C 730.56 359.66 734.44 353.51 734.12 348.35C 733.91 345.01 730.4 343.06 727.47 344.19C 724.69 345.28 723.27 349.12 722.22 352.18Q 721.63 353.89 719.73 356.38C 714.28 363.53 706.62 366.16 698.02 367.16A 1.07 1.07 -3.14 0 1 696.83 366.1L 696.83 333.63A 1.86 1.83 72.31 0 1 697.59 332.13Q 701 329.65 704.46 326.09C 710.72 319.63 703.67 314.32 697.22 319.21Z" fill="#f4f5ef"/><path d="M 547.58 153Q 547.93 149.77 550.29 146.34Q 552.45 143.21 552.96 141.58Q 555.29 134.13 553.06 126.15C 549.4 113.05 533.59 110.79 523.35 116.88Q 515.11 121.78 512.86 131.22Q 512.13 134.28 511.1 135.16Q 509.24 136.74 507.04 136.55C 501.07 136.04 502.22 130.21 503.64 126.07Q 509.08 110.28 524.75 104.69C 531.7 102.2 540.59 102.33 547.49 105.73C 556.94 110.39 564.81 119.99 564.95 130.81C 565.01 136.08 564.87 139.98 562.81 144.92Q 560.13 151.34 556.5 155.99A 0.75 0.74 29.96 0 0 556.81 157.14C 561.83 159.15 568.09 162.39 563.79 169.05Q 562.61 170.87 560.05 170.86Q 558.94 170.86 556.39 168.46C 552.74 165.02 546.56 163.32 541.51 163.93Q 523.2 166.14 522.46 186.25Q 522.32 190.02 518.97 190.93C 513.83 192.32 511.97 188.28 512.23 183.74C 513.31 164.91 528.29 152.2 546.92 153.55A 0.61 0.61 -84.76 0 0 547.58 153Z" fill="#3a3c40"/><path d="M 645.03 156.21C 637.7 147.62 634.53 135.14 637.71 124.85Q 641.19 113.6 651.93 107.14C 660.97 101.71 672.67 101.72 681.99 106.65C 691.21 111.51 698.51 121.23 698.9 132.37C 699.04 136.37 693.59 137.59 691.02 136.01Q 689.79 135.25 688.69 132Q 687.22 127.66 686.21 125.14A 7.76 7.47 17.33 0 0 685.37 123.61Q 681.18 117.66 675.28 115.46C 663.24 110.98 651.99 115.21 647.93 128Q 646.05 133.91 648.26 141.02C 649.13 143.84 651.97 147.47 653.21 149.58A 3.7 3.68 23.62 0 1 653.78 151.02L 654.12 153.12A 0.52 0.51 -6.4 0 0 654.65 153.54Q 656.07 153.48 656.12 153.47Q 657.28 153.29 657.61 153.3Q 673.73 153.75 682.69 165.48C 686.99 171.12 689.48 178.94 689.13 186.02C 688.88 190.86 684.62 192.49 680.54 190.18A 2.69 2.67 15.43 0 1 679.18 187.8Q 679.23 184.88 678.57 181.45Q 675.68 166.4 661.39 164.41Q 651.75 163.06 643.78 169.98C 642.61 170.99 639.9 171.33 638.49 170.27C 634.66 167.38 635.68 162.8 639.07 160.22Q 641.97 158.02 644.79 157.09A 0.55 0.55 60.37 0 0 645.03 156.21Z" fill="#3a3c40"/><path d="M 432.26 168.26C 426.23 174.26 420.89 165.95 425 160.93Q 429.29 155.71 436.37 151.93Q 442.49 148.65 450.37 148.27Q 467.91 147.42 479.31 161.81C 482.41 165.72 487.66 175.74 484.71 180.62C 482.36 184.48 477 183.33 475.86 179.16C 473.75 171.43 470.16 164.25 463.29 161.18Q 451.85 156.05 440.32 161.71Q 437.38 163.15 432.26 168.26Z" fill="#3a3c40"/><path d="M 776.48 160.94C 780.62 165.97 775.26 174.33 769.2 168.31Q 764.05 163.18 761.1 161.74Q 749.51 156.07 738.03 161.23C 731.13 164.33 727.54 171.54 725.43 179.31C 724.29 183.5 718.9 184.66 716.54 180.78C 713.57 175.89 718.83 165.82 721.94 161.89Q 733.37 147.42 750.99 148.25Q 758.9 148.63 765.05 151.91Q 772.17 155.7 776.48 160.94Z" fill="#3a3c40"/><path d="M 441.91 205.04A 0.36 0.36 -78.12 0 0 442.43 204.7Q 441.92 194.21 445.71 183.67C 446.87 180.43 449.3 176.49 452.92 175.67Q 455.17 175.15 456.76 176.8Q 459.47 179.59 457.43 183.44C 454.53 188.9 453.02 191.53 452.79 197.24Q 452.32 208.89 459.52 217.83A 5.6 5.6 45.67 0 1 459.44 224.94L 459.23 225.19A 4.03 4.02 43.04 0 1 453.26 225.39C 448.99 220.99 442.49 213.7 434.56 212.92C 429.47 212.42 424.25 212.19 419.8 214.16Q 416.2 215.76 416.06 215.82C 413.25 217 410.05 213.28 410.38 210.49C 411.24 203.11 427.93 202.24 433.26 202.67Q 437.76 203.04 441.91 205.04Z" fill="#3a3c40"/><path d="M 758.96 204.45A 0.41 0.41 -7.68 0 0 759.5 204.86Q 772.27 200.4 785.24 204.78C 787.74 205.62 790.68 206.94 791.14 209.47C 791.56 211.84 790.08 215.95 787.22 216.25Q 786.22 216.36 784.08 215.26Q 778.57 212.43 770.73 212.67C 762.28 212.92 756.12 216.54 751.01 223.08C 748.52 226.28 745.58 228.31 742.43 225.12C 739.39 222.04 740.71 219.31 743.29 215.91C 749.43 207.83 749.61 197.76 746.81 188.25Q 746.55 187.37 744.67 184.51C 742.64 181.42 742.4 178.48 745.89 176.63C 749.97 174.46 753.4 177.59 754.73 181.28Q 755.34 182.95 755.38 183.06Q 759.59 193.47 758.96 204.45Z" fill="#3a3c40"/><path d="M 524.36 200.07C 527.68 202.77 527.34 206.7 523.63 208.68Q 522.21 209.44 519.28 208.99Q 516.12 208.5 511.25 208.44C 492.34 208.21 476.09 222.87 477.08 242.38C 477.31 246.91 480.69 252.87 475.36 255.35C 471.81 257.01 468.39 253.78 467.75 250.48Q 466.77 245.42 466.89 237.5C 467.13 220.75 479.92 206.14 495.3 200.89Q 506.38 197.11 518.02 198.5Q 521.64 198.93 523.52 199.6A 3.14 3.01 -14.58 0 1 524.36 200.07Z" fill="#3a3c40"/><path d="M 732.74 253.21C 731.47 257.34 722.11 256.33 722.8 250.64C 723.25 246.92 724.52 243.57 724.31 239.77C 723.61 227.16 716.55 215.48 704.53 211.13C 696.87 208.37 691.33 207.99 682.98 208.92Q 679.32 209.32 678.31 208.77C 675.16 207.05 675.12 202.5 677.55 200.2Q 678.64 199.16 682.37 198.62Q 696.1 196.64 708.67 201.61Q 714.2 203.8 720.28 208.68C 733.1 218.98 737.52 237.7 732.74 253.21Z" fill="#3a3c40"/><path d="M 756.09 260.42C 752.13 264 750.58 269.33 749.68 274.64C 749.15 277.85 747.87 279.46 744.74 279.51C 740.76 279.57 739.39 276.63 739.67 272.84C 740.25 264.98 743.5 258.2 749.31 252.93C 755.13 247.66 762.2 245.1 770.08 245.3C 773.88 245.4 776.67 247.06 776.22 251.01C 775.86 254.12 774.13 255.24 770.89 255.45C 765.51 255.81 760.05 256.83 756.09 260.42Z" fill="#3a3c40"/><path d="M 458.05 279.05C 455.6 279.54 452.26 279.11 451.65 276.25C 451.05 273.41 451.12 268.99 449.56 266.08Q 445.14 257.77 435.48 256.02Q 433.72 255.7 428.58 255.14Q 426.46 254.9 425.59 253.11C 423.41 248.59 427.33 245.77 431.51 245.62Q 438.87 245.36 446.54 249.23Q 461.26 256.66 461.96 273.74Q 462.15 278.23 458.05 279.05Z" fill="#3a3c40"/><path d="M 671.78 247.64A 0.49 0.48 -47.8 0 1 671.82 248.53C 657.4 255.63 647.42 260.17 632.14 268.04Q 619.4 274.6 609.13 279.36Q 606.61 280.52 604.97 282.26A 3.29 3.28 -13.89 0 0 604.26 283.43Q 603.81 284.75 603.83 289.25Q 603.89 304.88 603.89 505.85A 0.74 0.74 87 0 1 603.23 506.59C 596.47 507.32 588.88 506.81 583.15 506.83Q 554.64 506.92 526.56 506.54A 0.68 0.68 0.43 0 1 525.89 505.86L 525.89 248.45A 0.83 0.83 -0.35 0 1 526.71 247.62Q 583.91 247.03 623.35 247.57C 639.81 247.8 655.12 247.11 670.07 247.39Q 671.18 247.41 671.78 247.64Z" fill="#f4f5ef"/><path d="M 410.88 289.96Q 411.06 288.94 411.38 285.06Q 411.59 282.54 413.69 277.19Q 416.34 270.43 422 266.27C 424.13 264.7 427.71 263.2 429.99 265.31C 432.98 268.09 432.54 271.4 429.6 273.93C 425.18 277.75 422.08 281.66 421.61 287.62Q 421 295.24 426.01 300.76C 433.29 308.77 438.02 317.33 436.81 328.5Q 435.91 336.82 431.62 343.47A 5.33 5.31 -58.57 0 1 424.49 345.2L 424.09 344.97A 4.2 4.19 -59.42 0 1 422.6 339.17C 426.64 332.5 427.74 323.99 424.55 316.65Q 423.87 315.06 421.76 312.46C 418.18 308.03 416.65 305.44 413.94 301.16A 0.95 0.94 -22.01 0 0 412.94 300.74C 400.97 303.48 389.41 299.58 382.2 290.35Q 377.26 284.03 375.73 274.14C 374.87 268.56 376.88 261.99 378.64 256.92C 380.09 252.72 383.94 248.46 388.52 250.69Q 391.97 252.37 390.38 256.24Q 389.19 259.11 388.33 260.27C 385.96 263.5 385.85 269.4 386.24 273.51Q 387.04 281.94 393.13 286.55Q 400.51 292.13 409.48 291.25A 1.57 1.57 -87.57 0 0 410.88 289.96Z" fill="#3a3c40"/><path d="M 791.13 291.12Q 794.96 291.77 799.01 291.31C 803.51 290.8 809.28 286.52 811.91 282.69C 816.98 275.31 815.83 264.93 811.61 257.45C 808.23 251.46 815.43 247.95 819.49 251.33Q 821.28 252.83 823.17 257.5Q 828.04 269.57 823.91 281.68Q 823.2 283.79 820.15 289.57A 5.91 5.87 80.01 0 1 819.26 290.85Q 807.33 304.16 788.66 300.85A 1.45 1.43 19 0 0 787.14 301.58L 784.47 306.53A 7.66 7.62 -10.35 0 1 783.49 307.94C 780.21 311.7 775.83 316.22 775.23 320.82Q 774.23 328.54 776.18 333.34C 777.71 337.11 782.39 342.18 776.96 345.33C 767.68 350.71 764.23 328.57 764.33 324.75C 764.5 318.17 767.22 310.87 771.68 305.77C 775.82 301.04 779.37 297.54 779.7 291.32Q 780.07 284.49 776.98 279.18Q 776.32 278.04 770.72 272.49Q 768.65 270.43 770.24 267.28C 772.71 262.4 777.33 264.24 780.54 267.19Q 786.51 272.69 789.08 281.17C 789.9 283.88 790.02 287.03 790.42 290.37A 0.87 0.86 -88.68 0 0 791.13 291.12Z" fill="#3a3c40"/><path d="M 439.85 384.09Q 438.25 385.14 436.68 385.45Q 423.17 388.15 410.47 385.28Q 402.57 383.49 395.08 378.14Q 383.07 369.57 378.58 355.97C 375.4 346.34 374.71 338.34 377.41 328.58Q 378.56 324.42 383.07 324.95C 386 325.29 387.02 327.7 386.71 330.68Q 386.41 333.58 386.38 340.91C 386.28 361.61 401.62 374.89 421.67 376.38Q 424.52 376.59 428.7 375.94C 433.15 375.24 438.32 373.76 440.32 377.6Q 441.7 380.27 440.49 383.3A 1.73 1.67 85.1 0 1 439.85 384.09Z" fill="#3a3c40"/><path d="M 816.88 325.74C 821.82 323.37 824.22 327.11 825.07 331.54Q 826.94 341.17 824.22 352.22Q 820.09 368.97 806.01 378.75C 794.02 387.08 779.26 387.93 765.18 385.37C 759.12 384.27 760.45 373.64 767.38 374.88C 779.26 377.01 790.83 376.88 801.15 369.76C 811.97 362.3 815.58 350 815.06 337.02Q 814.78 330.15 814.81 328.94A 3.65 3.63 -12.25 0 1 816.88 325.74Z" fill="#3a3c40"/><path d="M 384.65 394.15C 388.75 395.16 391.29 396.18 390.88 401.02C 390.49 405.74 386.4 405.75 382.7 404.46C 369.75 399.95 356.96 404.64 353.44 418.47C 352.56 421.93 352.86 424.2 352.72 428.08A 1.86 1.85 61.1 0 1 352.46 428.99Q 349.9 433.32 345.5 430.88Q 343.75 429.91 343.43 428.11C 342.63 423.64 342.15 415.79 344.45 411.73C 346.92 407.37 349 403.53 352.76 400.25C 362.03 392.16 372.87 391.24 384.65 394.15Z" fill="#3a3c40"/><path d="M 810.49 401.13Q 811.21 396.46 816.36 395.33C 820.48 394.43 824.16 393.5 827.55 393.36Q 843.44 392.66 852.97 404.76C 858.2 411.4 859.49 418.24 858.49 426.48C 857.66 433.28 848.5 433.45 848.8 426.68C 849.11 419.6 846.35 409.44 839.16 406.12Q 831.59 402.62 825.06 404.16Q 821.14 405.09 817.24 406.09Q 811.8 407.48 810.53 402.24A 2.87 2.84 -47.33 0 1 810.49 401.13Z" fill="#3a3c40"/><path d="M 401.27 414.6C 404.08 412.4 408.29 415.86 410.29 418.03A 4.82 4.8 -6 0 0 411.38 418.91C 422.47 425.46 434.57 424.21 444.27 415.82C 446.71 413.71 451.8 405.36 455.97 408.37C 463.87 414.05 451.5 423.82 446.66 427.16Q 441.03 431.05 433.85 432.54Q 417.43 435.95 403.44 425.61C 399.76 422.89 396.41 418.4 401.27 414.6Z" fill="#3a3c40"/><path d="M 743.69 410.31Q 746.63 406.62 751.23 409.27C 753.37 410.51 754.87 413.6 756.82 415.33Q 758.63 416.93 760.06 418.36A 4.01 3.81 -6.66 0 0 760.94 419.02Q 774.93 426.75 788.82 419.87A 6.63 6.32 -77.33 0 0 790.26 418.91Q 791.23 418.07 795.22 414.82Q 797.56 412.91 800.59 415.02C 804.8 417.96 802.35 422.63 799.15 425.13C 790.59 431.82 780.56 434.41 769.8 432.94C 758.98 431.45 749.66 423.87 743.44 414.92Q 742.8 414 743.23 411.36A 2.3 2.21 -22.45 0 1 743.69 410.31Z" fill="#3a3c40"/><path d="M 628.74 408.68A 7.72 6.56 -87.4 0 1 634.94 416.69A 7.72 6.56 -87.4 0 1 628.04 424.1A 7.72 6.56 -87.4 0 1 621.84 416.09A 7.72 6.56 -87.4 0 1 628.74 408.68Z" fill="#f4f5ef"/><path d="M 507.94 458.79C 509.81 462.27 505.3 465.6 502.63 467.19Q 492.38 473.27 480.09 473.56Q 467.58 473.86 457.58 467.67Q 446.91 461.07 441.37 449.14C 440.43 447.12 439.22 443.27 440.2 440.96C 441.44 438.01 446.32 435.55 448.53 438.95C 450.37 441.79 450.96 445.74 452.56 448.39Q 457.74 457 467.68 460.85Q 468.55 461.18 474.71 462.48C 481.06 463.82 486.83 462.92 492.78 460.61C 495.38 459.61 497.11 458.25 499.59 456.86C 503 454.95 505.83 454.85 507.94 458.79Z" fill="#3a3c40"/><path d="M 409.39 491.26C 411.23 495.27 414.2 500.72 413.58 504.73C 413.07 507.97 409.4 509.61 406.64 508.39C 403.88 507.16 400.44 497.31 399.58 494.96A 1 0.99 -17.33 0 0 398.39 494.34C 388.24 496.95 376.29 494.54 369.1 486.97Q 360.52 477.94 361.34 464.69Q 361.49 462.16 363.68 455.4Q 365.75 449.03 370.8 444.56C 375.2 440.66 381.06 445.68 378.05 450.57Q 377.86 450.88 375.27 454.73Q 368.3 465.1 373.79 476.39Q 375.27 479.43 377.53 480.93C 383.96 485.2 391.05 486.48 398.5 483.89C 406.66 481.04 411.61 475.95 415.52 468.58Q 417.48 464.87 418.87 462.89A 3.59 3.57 -70.24 0 1 422.06 461.38C 428.39 461.82 427.59 468.65 425.46 472.45Q 419.72 482.74 409.78 489.8A 1.19 1.18 -30.12 0 0 409.39 491.26Z" fill="#3a3c40"/><path d="M 802.43 494.52A 0.71 0.7 17.09 0 0 801.61 494.95C 799.97 499.3 797.81 506.11 795.1 507.82C 791.27 510.24 786.51 507.16 787.7 502.57C 788.74 498.58 789.84 496.36 792.14 491.55A 0.97 0.97 -58.61 0 0 791.85 490.35Q 785.19 485.32 779.76 478.5C 777.36 475.48 771.36 466.12 776.12 462.77C 781.35 459.1 783.96 465.64 786.14 469.36C 788.71 473.72 792.98 479.02 797.81 481.5Q 803.85 484.62 807.71 485.11C 816.47 486.21 826.33 482.67 829.01 473.53Q 829.95 470.31 829.34 463.39C 828.99 459.44 825.65 455.04 823.52 450.73C 820.73 445.12 827.01 440.71 831.34 444.88C 835.99 449.37 838.33 455.62 839.87 461.97C 842.18 471.55 837.9 482.3 830.69 488.55C 823.2 495.06 811.94 496.75 802.43 494.52Z" fill="#3a3c40"/><path d="M 714.19 507.64C 715.16 501.11 724.17 503.16 724.22 508.44C 724.33 520.5 720.42 531.85 710.51 539.32Q 697.26 549.29 681.35 545.29Q 677.97 544.44 676.84 543.09C 674.44 540.22 676.5 535.64 679.83 534.69A 2.41 2.37 -45.86 0 1 681.04 534.66C 685.61 535.79 691.62 537.12 696.44 535.47Q 711.42 530.33 713.77 514.88C 714.11 512.69 713.85 509.92 714.19 507.64Z" fill="#3a3c40"/><path d="M 477.35 508.65C 477.36 503.33 486.42 501.21 487.44 507.78C 487.8 510.07 487.56 512.86 487.91 515.06Q 490.39 530.61 505.51 535.68C 510.37 537.31 516.41 535.93 521.01 534.76A 2.42 2.39 45.47 0 1 522.23 534.78C 525.59 535.71 527.69 540.31 525.29 543.22Q 524.17 544.58 520.77 545.46Q 504.78 549.6 491.37 539.65C 481.34 532.2 477.32 520.8 477.35 508.65Z" fill="#3a3c40"/><path d="M 768.65 566.1C 767.6 563.98 769.36 561.03 770.83 558.78Q 771.82 557.28 772.83 555Q 779.14 540.87 770.91 527.6C 765.95 519.6 757.91 516.48 749.07 515.26Q 744.25 514.6 744.22 510.07C 744.19 507.01 746.68 505.39 749.84 505.4Q 758.79 505.43 766.06 509.39C 775.16 514.34 782.97 523.2 785.04 533.47Q 788.65 551.33 778.46 566.16C 775.94 569.83 770.78 570.37 768.65 566.1Z" fill="#3a3c40"/><path d="M 456.49 507.81C 457.54 510.3 457.72 514.55 454.15 515.06Q 449.47 515.74 447.66 516.16Q 431.58 519.84 427.24 535.11Q 423.67 547.69 430.66 558.77C 432.79 562.13 434.2 565.27 430.79 568.02C 424.45 573.13 419.75 561.63 418.14 557.32C 410.83 537.69 418.26 520.66 434.99 509.81C 439.03 507.19 444.73 506.15 449.28 505.6C 451.78 505.29 455.34 505.11 456.49 507.81Z" fill="#3a3c40"/><path d="M 707.08 591.41Q 703.35 592.35 702.77 592.4Q 678.92 594.43 667.32 573.83C 664.23 568.33 671.84 562.39 675.86 568.26Q 678.28 571.78 679.16 573.02C 684.89 581.08 694.83 583.85 704.57 581.4C 714.31 578.96 721.76 571.83 723.01 562.02Q 723.2 560.51 723.67 556.26C 724.44 549.19 733.96 550.84 733.83 557.14Q 733.33 580.78 711.35 590.25Q 710.81 590.48 707.08 591.41Z" fill="#3a3c40"/><path d="M 529.74 566.19C 535.79 565.18 536.61 571.63 533.95 575.45Q 528.22 583.65 520.75 588.2Q 513.6 592.56 503.65 592.62Q 484.81 592.73 473.86 577.8Q 467.34 568.9 468.02 557.02A 4.98 4.97 0.13 0 1 472.72 552.35L 472.98 552.33A 4.56 4.56 85.75 0 1 477.77 556.46Q 478.42 563.4 478.94 564.78Q 483.3 576.38 493.47 580.36C 505.57 585.1 516.74 581.52 524.67 571.32Q 527.96 567.09 528.71 566.6A 2.56 2.54 -66.54 0 1 529.74 566.19Z" fill="#3a3c40"/><path d="M 551.82 557.87A 3.3 3.3 56.41 0 1 552.45 554.74C 555.58 551.08 558.99 551.91 561.6 555.51C 565.88 561.42 566.56 570.62 565.6 577.69Q 564.75 583.97 560.92 589.61Q 551.54 603.43 533.16 601.64Q 531.41 601.47 529.15 600.51C 525.48 598.96 527.33 593.86 529.54 592.05C 531.67 590.3 536.82 591.78 539.13 591.58Q 549.37 590.68 553.39 582.47C 556.25 576.63 556.81 570.27 554.05 564.06Q 553.13 561.98 551.82 557.87Z" fill="#3a3c40"/><path d="M 673.82 595.45L 673.9 595.9A 4.62 4.62 80.74 0 1 670.03 601.28C 663.16 602.3 655.92 602.24 650.26 598.63Q 647.16 596.66 644.93 594.84C 638.49 589.58 635.01 578.72 635.84 570.31C 636.35 565.1 639.1 549.32 647.25 553.06Q 651.5 555.01 649.09 559.68Q 644.26 569.01 646.89 579.04Q 647.55 581.53 649.2 583.87Q 656.24 593.87 667.73 591.37A 5.09 5.08 -11.13 0 1 673.82 595.45Z" fill="#3a3c40"/><path d="M 567.19 767.18A 0.36 0.36 -71.11 0 0 567.78 766.89Q 567.15 748.81 567.9 732.53C 568.46 720.36 590.08 719.9 590.08 733.26Q 590.08 782.85 590.2 799Q 590.29 810.75 586.05 822.51C 582.09 833.52 571 842.76 560.8 845.64C 546.85 849.56 531.24 848.24 519.67 838.9Q 505.23 827.24 503.35 808.36Q 501.75 792.24 508.43 779.98C 516.43 765.29 531.99 756.51 548.41 758.83Q 559 760.32 567.19 767.18Z" fill="#3a3c40"/><path d="M 397.77 732.13A 13.27 13.03 -20.1 0 1 389.79 748.93A 13.27 13.03 -20.1 0 1 372.85 741.25A 13.27 13.03 -20.1 0 1 380.83 724.45A 13.27 13.03 -20.1 0 1 397.77 732.13Z" fill="#3a3c40"/><path d="M 627.86 771.75Q 628.24 771.75 628.39 771.41C 631.11 765.2 636.09 761.56 642.15 759.18Q 646.61 757.43 650.12 758.11C 655.48 759.16 660.29 762.04 660.8 768.06C 661.28 773.78 659.28 779.53 653.51 781.32C 651.07 782.08 646.57 780.99 643.51 780.77Q 640.62 780.56 637.69 781.95C 630.44 785.39 628.15 792.22 628.14 799.75Q 628.11 815.3 628.03 832.25C 628.02 835.34 627.96 840.44 625.78 843.07C 622.15 847.46 615.02 847.61 610.54 844.94C 606.4 842.47 605.51 838.64 605.6 833.34Q 605.81 819.65 605.52 772.6Q 605.49 768.01 606.38 766.1C 609.21 760.01 616.54 758.82 622.39 761.14C 626.88 762.92 627.06 766.74 627.12 770.99A 0.77 0.73 89.24 0 0 627.86 771.75Z" fill="#3a3c40"/><path d="M 416.57 843.9Q 413.38 841.26 413.34 836.22Q 413.31 831.69 413.28 797Q 413.28 789.26 415.89 780.42Q 416.64 777.86 421.56 771.3Q 426.71 764.41 436.26 761.23Q 452.77 755.73 468.91 761.3C 484.36 766.63 489.59 781.21 489.74 796Q 489.98 819.77 489.69 834.01C 489.61 837.68 489.25 842.53 485.54 844.56C 479.52 847.84 472.1 846.91 468.57 840.61Q 467.44 838.59 467.39 833.71Q 467.16 810.53 467.35 795.75C 467.44 788.8 463.79 781.46 456.67 779.73C 449.09 777.89 441.25 780.22 437.62 787.41Q 436.54 789.55 436.36 794.6C 436.04 803.82 435.99 814.74 436.04 835.49C 436.05 842.57 430.68 847.33 423.67 846.49Q 419.02 845.93 416.57 843.9Z" fill="#3a3c40"/><path d="M 729.22 814.19A 0.44 0.43 -8.86 0 1 729.67 814.51Q 732.39 824.31 738.39 833.86A 1.64 1.63 -39.35 0 1 738.19 835.85C 734.05 840.19 728.71 843.89 722.97 845.61C 710.44 849.35 695.06 848.54 683.8 840.94C 673.58 834.04 665.58 823.35 664.13 810.71C 662.76 798.79 664.32 786.72 671.45 777.14C 676.94 769.76 683.92 763.94 692.9 761.01C 708.42 755.96 726.03 758.45 738.4 769.3Q 747.03 776.87 751.36 787.66C 753.02 791.8 754.86 798.89 757.24 804.26C 758.86 807.91 759.93 811.12 762.3 814.23C 766.74 820.05 770.31 824.13 777.71 825.85C 789.74 828.64 801.66 824.72 805.53 811.9Q 809.24 799.57 802.96 788.54C 799.01 781.61 791.66 778.83 783.23 779.11C 774.43 779.4 767.09 784.43 763.44 792.36A 0.64 0.64 -41.52 0 1 762.25 792.29Q 758.95 782 754.09 773.74A 1.62 1.61 -40.86 0 1 754.23 771.89C 764.13 759.88 780.71 757.05 795.27 759.52Q 806.12 761.37 816.26 770.42Q 825.32 778.5 828.14 791.51C 831.01 804.73 829.6 819.32 820.96 829.96C 814.8 837.56 807.17 844.12 797.07 846.31C 786.55 848.59 773.65 848.15 763.63 843.43Q 759.03 841.26 754 836.72Q 742.67 826.5 737.56 811.73C 734.89 804.02 732.03 794.13 726.29 786.72C 720.61 779.37 709.78 777.95 701.29 780.31Q 695.17 782.01 690.74 788.03C 681.89 800.07 685.64 821.59 701.83 825.63Q 719.64 830.07 728.6 814.56A 0.72 0.63 -87.53 0 1 728.8 814.35Q 729.03 814.21 729.22 814.19Z" fill="#3a3c40"/><path d="M 296.8 770.07C 299.19 768.22 302.23 765.24 305.32 763.3C 315.47 756.91 332.06 757.18 342.51 763.28C 352.63 769.19 356.86 781.95 356.98 793.78Q 357.32 828.64 356.97 837.22C 356.43 850.17 334.98 849.55 334.88 835.92Q 334.63 802.43 334.63 795.5C 334.63 789.69 333.68 783.65 328.2 780.81C 323.49 778.37 316.77 778.43 312.37 781.68C 307.69 785.14 306.35 790.38 306.14 796.23Q 306.13 796.46 306.28 833.5C 306.3 838.96 304.78 844.15 299.17 845.83C 293.03 847.67 286.25 845.56 284.06 839.2Q 283.41 837.28 283.45 832.72Q 283.66 812.32 283.6 795.94C 283.58 788.15 280.44 780.27 272.02 779.23C 264.63 778.32 257.27 782.1 255.72 789.68Q 254.95 793.46 254.95 800.75Q 254.96 821.52 254.97 834.25C 254.97 839.06 254.02 844.42 248.7 845.72C 240.8 847.66 232.8 845.44 232.52 836.22Q 232.09 821.31 232.37 796.47Q 232.48 786.73 235.79 778.34Q 239 770.17 247.66 764.17Q 252.17 761.04 259.48 759.64C 272.36 757.17 286.48 759.42 295.44 769.93A 0.99 0.99 -38.99 0 0 296.8 770.07Z" fill="#3a3c40"/><path d="M 906.91 770.53A 0.44 0.44 90 0 0 907.57 770.53Q 917.78 758.99 933.52 758.59Q 944.02 758.33 952.8 763.02C 962.86 768.41 967.54 782.08 967.98 793.28Q 968.47 806.04 968.13 827.77C 968.05 833.03 968.89 841.01 964.04 844.25Q 958.59 847.9 951.67 845.57Q 948.56 844.52 947.58 842.97C 946.13 840.66 945.34 838.06 945.3 834.65Q 945.13 820.39 945.19 793.81Q 945.2 792.73 944.52 789.24C 941.91 775.74 921.44 776 917.93 788.69Q 916.95 792.27 916.95 796.5Q 917 815.31 916.87 830.13C 916.81 836.41 917.18 840.26 913.62 843.84C 909.86 847.61 902.45 847.17 898.38 844.62Q 894 841.87 893.99 836.15Q 893.91 806.3 893.84 796.75C 893.78 789.75 892.42 782 884.37 780.03C 877.82 778.43 870.85 779.99 867.41 785.92C 865.9 788.53 865.62 794.18 865.62 797.45Q 865.62 830.58 865.51 835.23C 865.33 842.09 861.05 847.14 854.03 846.53C 847.72 845.99 843.42 843.27 843.23 836.47Q 842.84 822.58 843.09 800.76Q 843.22 788.92 844.29 784.66C 847.22 772.97 854.76 763.63 866.68 760.39C 881.15 756.45 896.83 758.89 906.91 770.53Z" fill="#3a3c40"/><path d="M 396.59 836.34A 10.01 10.01 0 0 1 386.58 846.35L 383.96 846.35A 10.01 10.01 0 0 1 373.95 836.34L 373.95 770.22A 10.01 10.01 0 0 1 383.96 760.21L 386.58 760.21A 10.01 10.01 0 0 1 396.59 770.22L 396.59 836.34Z" fill="#3a3c40"/><path d="M 546.41 778.91A 23.88 21.46 -90.5 0 1 568.08 802.6A 23.88 21.46 -90.5 0 1 546.83 826.67A 23.88 21.46 -90.5 0 1 525.16 802.98A 23.88 21.46 -90.5 0 1 546.41 778.91Z" fill="#f4f5ef"/></svg>
